HIERARCHY
ROOT ui
{
	 OFFSET 0 0 0
	 CHANNELS 3 XPosition YPosition Z Position
	 EndSite
	 {
	 OFFSET 0 -1 0
	 }
}
ROOT li
{
	 OFFSET 0 0 0
	 CHANNELS 3 XPosition YPosition Z Position
	 EndSite
	 {
	 OFFSET 0 -1 0
	 }
}
ROOT ul
{
	 OFFSET 0 0 0
	 CHANNELS 3 XPosition YPosition Z Position
	 EndSite
	 {
	 OFFSET 0 -1 0
	 }
}
ROOT ll
{
	 OFFSET 0 0 0
	 CHANNELS 3 XPosition YPosition Z Position
	 EndSite
	 {
	 OFFSET 0 -1 0
	 }
}
ROOT tt
{
	 OFFSET 0 0 0
	 CHANNELS 3 XPosition YPosition Z Position
	 EndSite
	 {
	 OFFSET 0 -1 0
	 }
}
ROOT tb
{
	 OFFSET 0 0 0
	 CHANNELS 3 XPosition YPosition Z Position
	 EndSite
	 {
	 OFFSET 0 -1 0
	 }
}
ROOT td
{
	 OFFSET 0 0 0
	 CHANNELS 3 XPosition YPosition Z Position
	 EndSite
	 {
	 OFFSET 0 -1 0
	 }
}
ROOT v
{
	 OFFSET 0 0 0
	 CHANNELS 3 XPosition YPosition Z Position
	 EndSite
	 {
	 OFFSET 0 -1 0
	 }
}
ROOT bn
{
	 OFFSET 0 0 0
	 CHANNELS 3 XPosition YPosition Z Position
	 EndSite
	 {
	 OFFSET 0 -1 0
	 }
}
MOTION
Frames: 19
Frame Time: 0.002
-0.004844647884368896	0.003001028060913086	0		0.485061279296875	-2.4410810546875	0		-1.213173828125	-0.012121051788330077	0		-0.746450927734375	-2.683901611328125	0		1.350533447265625	-0.9100216064453125	0		3.01285498046875	-0.11116497039794922	0		4.69201611328125	0.1033994140625	0		5.62285302734375	0.20278929138183593	0		-0.35545394897460936	5.903474609375	0		
0.027654930114746092	0.0010558940172195434	0		0.5383096923828125	-2.445365478515625	0		-1.1285682373046875	-0.006688823223114013	0		-0.7291927490234374	-2.685568603515625	0		1.3550516357421876	-0.9046962890625	0		3.014319091796875	-0.11494690704345703	0		4.6756279296875	0.10871784210205078	0		5.6254208984375	0.21309878540039062	0		-0.3554176025390625	5.90202490234375	0		
0.002146612882614136	9.543020129203797E-4	0		0.5047767639160157	-2.43140185546875	0		-1.1390645751953126	-0.005897141933441162	0		-0.7078946533203125	-2.6822666015625	0		1.352415771484375	-0.9082443237304687	0		3.037050048828125	-0.09800242614746094	0		4.6943232421875	0.12156754302978516	0		5.62725732421875	0.22347236633300782	0		-0.22209127807617188	5.92172021484375	0		
0.018635467529296876	0.0012882130146026612	0		0.5259171752929688	-2.440183837890625	0		-1.068653076171875	-0.01122864818572998	0		-0.7106890258789063	-2.68459765625	0		1.348767578125	-0.9117471923828125	0		2.99939306640625	-0.10717266845703124	0		4.68664013671875	0.10882063293457031	0		5.6246630859375	0.20983555603027343	0		-0.35635125732421874	5.90322705078125	0		
-0.0019445539712905884	-0.0028209350109100343	0		0.4971953125	-2.439223388671875	0		-1.14515673828125	-0.009440448760986328	0		-0.7145065307617188	-2.688886474609375	0		1.342249267578125	-0.9061747436523437	0		3.013843017578125	-0.10904526519775391	0		4.686125	0.10801477813720703	0		5.6213544921875	0.19629981994628906	0		-0.3563579711914063	5.90286376953125	0		
0.02252136993408203	-0.004546218872070312	0		0.5343401489257813	-2.449177001953125	0		-1.1387615966796876	-0.015809855461120605	0		-0.7003225708007812	-2.6944072265625	0		1.3506121826171875	-0.909781982421875	0		3.0032314453125	-0.11551862335205078	0		4.6756181640625	0.10740047454833984	0		5.6209765625	0.19486212158203126	0		-0.2372333221435547	5.91181201171875	0		
-0.014716070175170898	0.013650688171386718	0		0.4827516784667969	-2.44181640625	0		-1.1370765380859376	-0.0030858869552612303	0		-0.7108767700195312	-2.6835439453125	0		1.3500384521484374	-0.9102243041992187	0		3.01211083984375	-0.08922471618652343	0		4.67821142578125	0.11265145111083984	0		5.61933837890625	0.21952044677734375	0		-0.3554297180175781	5.90120654296875	0		
0.021537275314331056	-0.005191126823425293	0		0.5340126342773438	-2.44791455078125	0		-1.1466593017578126	-0.010176526069641114	0		-0.7465078125	-2.6802880859375	0		1.3425928955078126	-0.9035280151367188	0		3.00223046875	-0.11661763000488282	0		4.6877373046875	0.11185669708251954	0		5.62318310546875	0.20429734802246094	0		-0.22415724182128907	5.92201611328125	0		
-8.595510125160217E-4	-0.001147716999053955	0		0.49652566528320313	-2.438686767578125	0		-1.1471173095703124	-0.010375743865966796	0		-0.6792704467773437	-2.689508544921875	0		1.3400162353515626	-0.9078655395507812	0		3.021953369140625	-0.1043909912109375	0		4.67420068359375	0.1054544677734375	0		5.615716796875	0.2034232635498047	0		-0.3565226135253906	5.9016884765625	0		
0.005870526790618897	0.009500067710876465	0		0.5198681640625	-2.44431787109375	0		-1.1475487060546874	-0.01055307960510254	0		-0.7508009033203125	-2.684671875	0		1.3336328125	-0.9011091918945312	0		2.9964306640625	-0.11045792388916016	0		4.683775390625	0.10477047729492188	0		5.62253466796875	0.20214703369140624	0		-0.35658865356445313	5.90146240234375	0		
-0.00473737096786499	-0.004572195053100586	0		0.47831729125976563	-2.444963134765625	0		-1.1759639892578124	-0.011296305656433105	0		-0.7035078125	-2.6955576171875	0		1.344986083984375	-0.914580810546875	0		2.996021484375	-0.11084757995605468	0		4.6782607421875	0.0963604507446289	0		5.619283203125	0.18402789306640624	0		-0.356659423828125	5.90126171875	0		
0.022928651809692384	-0.0021820120811462404	0		0.5098736267089844	-2.441656982421875	0		-1.167237060546875	-0.0045657939910888675	0		-0.7447489624023438	-2.677112060546875	0		1.3496527099609374	-0.9089191284179687	0		3.009506103515625	-0.12040139770507813	0		4.677890625	0.09592736053466797	0		5.625427734375	0.18297166442871093	0		-0.34060308837890624	5.9098466796875	0		
-0.007342090129852295	0.0030905749797821044	0		0.5146074829101562	-2.4289267578125	0		-1.1355146484375	-1.5989500284194945E-4	0		-0.7122960815429688	-2.682739013671875	0		1.3403238525390626	-0.9050181884765625	0		3.012523193359375	-0.09575601196289063	0		4.68472412109375	0.10743934631347657	0		5.6204462890625	0.2256657257080078	0		-0.2235187530517578	5.9199521484375	0		
0.01919695281982422	-0.00645863389968872	0		0.5199781494140625	-2.44318359375	0		-1.1490010986328125	-0.011068782806396484	0		-0.7517369384765625	-2.68327880859375	0		1.3320093994140625	-0.9021010131835937	0		2.994958984375	-0.11176893615722656	0		4.68234521484375	0.10313562774658203	0		5.621478515625	0.1990301513671875	0		-0.356906494140625	5.900794921875	0		
-0.011029885292053223	-0.001139160990715027	0		0.5195902099609375	-2.443328125	0		-1.0733294677734375	-0.013290345191955566	0		-0.6822304077148438	-2.690423828125	0		1.331674072265625	-0.9022734375	0		2.994650634765625	-0.11199811553955077	0		4.67204541015625	0.102998046875	0		5.61412548828125	0.19874081420898437	0		-0.35700958251953124	5.90068017578125	0		
-0.011320289611816406	-0.001244642972946167	0		0.5041856689453125	-2.446224609375	0		-1.183533203125	-0.006721055030822754	0		-0.7525014038085938	-2.6834638671875	0		1.337252197265625	-0.9095068359375	0		3.00934033203125	-0.11341506958007813	0		4.67254833984375	0.08874310302734376	0		5.6139150390625	0.19827922058105468	0		-0.22481436157226561	5.92060888671875	0		
-0.008541511535644532	0.002625591039657593	0		0.5297973022460938	-2.44971044921875	0		-1.1367144775390625	-4.813829958438873E-4	0		-0.7138370971679687	-2.6831142578125	0		1.3390089111328125	-0.9056546020507813	0		2.979374755859375	-0.09212638854980469	0		4.6655703125	0.10864686584472656	0		5.620822265625	0.19417990112304687	0		-0.35726513671875	5.9005087890625	0		
-0.018678802490234375	0.011711100578308105	0		0.48477877807617187	-2.4291123046875	0		-1.1759835205078124	6.303799897432327E-5	0		-0.725044189453125	-2.674999267578125	0		1.3328076171875	-0.89965625	0		3.013675537109375	-0.1207725372314453	0		4.68120703125	0.1022486801147461	0		5.6228603515625	0.20936405944824218	0		-0.35741793823242185	5.9004521484375	0		
0.012856919288635254	-0.0018109229803085327	0		0.518257568359375	-2.4436728515625	0		-1.07444091796875	-0.013490137100219726	0		-0.7165067749023437	-2.685164306640625	0		1.32663232421875	-0.8926331787109375	0		3.003619140625	-0.10671892547607421	0		4.6709443359375	0.1022753677368164	0		5.6133232421875	0.1973537139892578	0		-0.35758285522460936	5.9004150390625	0		
